<mxfile host="app.diagrams.net" modified="2023-04-18T04:02:51.434Z" agent="Mozilla/5.0 (Windows NT 10.0; Win64; x64) AppleWebKit/537.36 (KHTML, like Gecko) Chrome/111.0.0.0 Safari/537.36" version="21.1.8" etag="cDtsNL6Pz5jh6vgulb7n" type="github">
  <diagram name="Страница 1" id="UvLG8eFcsz6ytqUrieQa">
    <mxGraphModel>
      <root>
        <mxCell id="0" />
        <mxCell id="1" parent="0" />
      </root>
    </mxGraphModel>
  </diagram>
</mxfile>
